<svg width="600" height="400" viewBox="0 0 600 400" fill="none" xmlns="http://www.w3.org/2000/svg">
  <!-- Main container -->
  <g opacity="0.6">
    <!-- Computer screen -->
    <rect x="50" y="80" width="200" height="120" rx="8" fill="#f8fafc" stroke="#e2e8f0" stroke-width="2"/>
    <rect x="60" y="90" width="180" height="90" fill="#ffffff"/>
    
    <!-- Screen content - charts -->
    <rect x="70" y="100" width="15" height="30" fill="#3b82f6"/>
    <rect x="90" y="110" width="15" height="20" fill="#6366f1"/>
    <rect x="110" y="95" width="15" height="35" fill="#8b5cf6"/>
    <rect x="130" y="105" width="15" height="25" fill="#06b6d4"/>
    
    <!-- Pie chart on screen -->
    <circle cx="190" cy="130" r="25" fill="none" stroke="#e2e8f0" stroke-width="2"/>
    <path d="M 190 105 L 190 130 L 210 120 A 25 25 0 0 0 190 105 Z" fill="#3b82f6"/>
    <path d="M 190 130 L 210 120 A 25 25 0 0 1 185 150 Z" fill="#6366f1"/>
    <path d="M 190 130 L 185 150 A 25 25 0 0 1 190 105 Z" fill="#8b5cf6"/>
    
    <!-- Computer stand -->
    <rect x="130" y="200" width="40" height="20" fill="#94a3b8"/>
    <rect x="110" y="220" width="80" height="8" fill="#64748b"/>
    
    <!-- Floating data elements -->
    <g transform="translate(300, 50)">
      <!-- Database icon -->
      <ellipse cx="50" cy="60" rx="30" ry="10" fill="#3b82f6" opacity="0.8"/>
      <ellipse cx="50" cy="70" rx="30" ry="10" fill="#6366f1" opacity="0.8"/>
      <ellipse cx="50" cy="80" rx="30" ry="10" fill="#8b5cf6" opacity="0.8"/>
      
      <!-- Cloud -->
      <ellipse cx="150" cy="100" rx="20" ry="15" fill="#06b6d4" opacity="0.8"/>
      <ellipse cx="135" cy="105" rx="15" ry="12" fill="#06b6d4" opacity="0.8"/>
      <ellipse cx="165" cy="105" rx="15" ry="12" fill="#06b6d4" opacity="0.8"/>
      
      <!-- Document icons -->
      <rect x="200" y="150" width="30" height="40" rx="4" fill="#3b82f6" opacity="0.8"/>
      <rect x="205" y="155" width="20" height="2" fill="#ffffff"/>
      <rect x="205" y="160" width="15" height="2" fill="#ffffff"/>
      <rect x="205" y="165" width="18" height="2" fill="#ffffff"/>
      
      <!-- Gear icon -->
      <circle cx="80" cy="180" r="20" fill="#6366f1" opacity="0.8"/>
      <circle cx="80" cy="180" r="10" fill="#ffffff"/>
      <rect x="75" y="160" width="10" height="8" fill="#6366f1" opacity="0.8"/>
      <rect x="75" y="192" width="10" height="8" fill="#6366f1" opacity="0.8"/>
      <rect x="60" y="175" width="8" height="10" fill="#6366f1" opacity="0.8"/>
      <rect x="92" y="175" width="8" height="10" fill="#6366f1" opacity="0.8"/>
    </g>
    
    <!-- Connection lines -->
    <g stroke="#94a3b8" stroke-width="2" opacity="0.5">
      <line x1="250" y1="140" x2="320" y2="120"/>
      <line x1="250" y1="140" x2="400" y2="160"/>
      <line x1="250" y1="140" x2="380" y2="200"/>
      <line x1="250" y1="140" x2="450" y2="180"/>
      
      <!-- Animated dots on lines -->
      <circle cx="285" cy="130" r="3" fill="#3b82f6">
        <animate attributeName="cx" values="250;320" dur="2s" repeatCount="indefinite"/>
        <animate attributeName="cy" values="140;120" dur="2s" repeatCount="indefinite"/>
      </circle>
      <circle cx="325" cy="150" r="3" fill="#6366f1">
        <animate attributeName="cx" values="250;400" dur="2.5s" repeatCount="indefinite"/>
        <animate attributeName="cy" values="140;160" dur="2.5s" repeatCount="indefinite"/>
      </circle>
    </g>
  </g>
</svg>