<svg width="9" height="10" viewBox="0 0 9 10" fill="none" xmlns="http://www.w3.org/2000/svg">
<path d="M8.24853 3.34C8.24303 3.324 8.23853 3.3085 8.23203 3.293C8.20832 3.23873 8.17514 3.18913 8.13403 3.1465L5.13403 0.1465C5.0914 0.105391 5.0418 0.0722057 4.98753 0.0484999C4.97253 0.0414999 4.95653 0.0374999 4.94053 0.0319999C4.89869 0.0177631 4.85514 0.00918708 4.81103 0.00650001C4.80003 0.00550001 4.79053 0 4.78003 0H1.28003C0.728529 0 0.280029 0.4485 0.280029 1V9C0.280029 9.5515 0.728529 10 1.28003 10H7.28003C7.83153 10 8.28003 9.5515 8.28003 9V3.5C8.28003 3.4895 8.27453 3.48 8.27353 3.469C8.27097 3.42508 8.26256 3.3817 8.24853 3.34ZM6.57303 3H5.28003V1.707L6.57303 3ZM1.28003 9V1H4.28003V3.5C4.28003 3.63261 4.33271 3.75979 4.42648 3.85355C4.52024 3.94732 4.64742 4 4.78003 4H7.28003L7.28103 9H1.28003Z" fill="#686868"/>
</svg>
