<svg width="41" height="41" viewBox="0 0 41 41" fill="none" xmlns="http://www.w3.org/2000/svg">
<rect width="40.4771" height="40.5109" rx="20.2386" fill="white"/>
<path d="M13.2761 13.2926V26.4446C13.2761 26.6498 13.3576 26.8465 13.5027 26.9916C13.6478 27.1367 13.8446 27.2182 14.0498 27.2182H27.2017V25.6709H14.8234V13.2926H13.2761Z" fill="#2E2E2E"/>
<path d="M22.7868 22.3497C22.8586 22.4216 22.9439 22.4786 23.0377 22.5176C23.1316 22.5565 23.2322 22.5765 23.3338 22.5765C23.4354 22.5765 23.536 22.5565 23.6299 22.5176C23.7237 22.4786 23.809 22.4216 23.8808 22.3497L27.749 18.4814L26.655 17.3875L23.3338 20.7088L21.5598 18.9348C21.488 18.8629 21.4028 18.8058 21.3089 18.7669C21.2151 18.728 21.1145 18.708 21.0129 18.708C20.9112 18.708 20.8106 18.728 20.7168 18.7669C20.6229 18.8058 20.5377 18.8629 20.4659 18.9348L16.5977 22.803L17.6916 23.897L21.0129 20.5757L22.7868 22.3497Z" fill="#2E2E2E"/>
</svg>
