<svg width="41" height="41" viewBox="0 0 41 41" fill="none" xmlns="http://www.w3.org/2000/svg">
<rect x="0.432617" y="0.0145264" width="40.4771" height="40.5109" rx="20.2386" fill="#2E2E2E"/>
<path d="M13.7087 13.3072V26.4591C13.7087 26.6643 13.7902 26.8611 13.9353 27.0062C14.0804 27.1513 14.2772 27.2328 14.4824 27.2328H27.6344V25.6855H15.256V13.3072H13.7087Z" fill="white"/>
<path d="M23.2194 22.3642C23.2912 22.4361 23.3765 22.4932 23.4703 22.5321C23.5642 22.571 23.6648 22.5911 23.7664 22.5911C23.868 22.5911 23.9686 22.571 24.0625 22.5321C24.1563 22.4932 24.2416 22.4361 24.3134 22.3642L28.1816 18.496L27.0877 17.4021L23.7664 20.7233L21.9924 18.9494C21.9207 18.8775 21.8354 18.8204 21.7415 18.7815C21.6477 18.7426 21.5471 18.7225 21.4455 18.7225C21.3439 18.7225 21.2433 18.7426 21.1494 18.7815C21.0555 18.8204 20.9703 18.8775 20.8985 18.9494L17.0303 22.8176L18.1242 23.9115L21.4455 20.5903L23.2194 22.3642Z" fill="white"/>
</svg>
