<svg width="62" height="22" viewBox="0 0 62 22" fill="none" xmlns="http://www.w3.org/2000/svg">
<path d="M57.4932 13.7834V3.34909C57.4932 1.67923 57.9458 0.930129 58.9602 0.930129H61.71V0H0V0.936372H3.96709V20.1382H0V21.0746H61.71V20.1382H53.8226C56.3446 19.0708 57.4932 16.7954 57.4932 13.7834ZM35.4604 0.936372C36.7276 0.936372 37.149 1.31092 37.149 2.06002C37.149 2.55005 36.9243 3.21175 36.5872 4.04825L33.2349 11.817L28.5905 0.936372H35.4604ZM23.8057 0.936372L29.2679 13.6367V20.1382H20.0696V0.936372H23.8057ZM15.6905 9.75075H8.35868V0.936372H15.678L15.6905 9.75075ZM8.35868 10.8838H15.678V20.1382H8.35868V10.8838ZM33.6594 20.1382V13.7334L38.0292 3.63312C38.9 1.47947 39.5461 0.936372 40.5043 0.936372H42.4488V13.6398C42.4488 16.8047 43.9689 19.0801 46.4846 20.1382H33.6594ZM51.4318 19.5983C47.3211 19.5983 46.8529 16.9514 46.8529 13.2653V0.936372H54.4687C55.9045 0.936372 56.3415 1.68547 56.3415 3.35533V13.9675C56.3415 17.713 54.1566 19.6107 51.4193 19.6107" fill="white"/>
</svg>
