<svg width="288" height="59" viewBox="0 0 288 59" fill="none" xmlns="http://www.w3.org/2000/svg">
<g clip-path="url(#clip0_14_9)">
<path d="M159.975 38.36V9.50001C159.975 4.88001 161.225 2.81001 164.025 2.81001H287.075V0.230011H0.925049V2.81001H11.895V55.94H0.925049V58.52H287.075V55.94H149.815C156.805 52.99 159.975 46.69 159.975 38.36ZM99.015 2.81001C102.525 2.81001 103.685 3.85001 103.685 5.92001C103.685 7.27001 103.065 9.10001 102.125 11.42L92.855 32.93L80.015 2.81001H99.015ZM66.775 2.81001L81.885 37.94V55.94H56.445V2.81001H66.775ZM44.295 27.19H24.045V2.81001H44.295V27.18V27.19ZM24.045 30.34H44.295V55.94H24.045V30.33V30.34ZM94.035 55.94V38.24L106.115 10.29C108.525 4.32001 110.315 2.80001 112.965 2.80001H118.375V37.96C118.375 46.72 122.575 53.01 129.545 55.94H94.025H94.035ZM143.205 54.45C131.835 54.45 130.535 47.13 130.535 36.93V2.81001H151.605C155.575 2.81001 156.825 4.88001 156.825 9.50001V38.84C156.825 49.24 150.755 54.45 143.205 54.45Z" fill="white"/>
<path d="M184.435 39.3V42.38H186.005V39.3H187.505V47H186.005V43.78H184.435V47H182.945V39.3H184.435Z" fill="white"/>
<path d="M190.755 45.24L190.415 47H188.965L190.635 39.3H192.425L193.925 47H192.475L192.145 45.24H190.765H190.755ZM192.005 44.07L191.755 42.46C191.675 41.99 191.575 41.23 191.505 40.71H191.475C191.395 41.22 191.285 42.02 191.205 42.47L190.915 44.07H192.015H192.005Z" fill="white"/>
<path d="M195.475 47V39.3H196.845L198.035 42.32C198.265 42.91 198.635 43.9 198.855 44.57H198.875C198.825 43.76 198.725 42.42 198.725 41.01V39.31H200.035V47.01H198.665L197.485 44.09C197.235 43.44 196.875 42.47 196.705 41.77H196.685C196.725 42.55 196.775 43.73 196.775 45.29V47.01H195.465L195.475 47Z" fill="white"/>
<path d="M202.935 47V44.05L201.245 39.3H202.845L203.375 41.14C203.515 41.63 203.665 42.2 203.775 42.77H203.795C203.885 42.21 204.015 41.65 204.155 41.1L204.615 39.3H206.165L204.435 43.99V46.99H202.935V47Z" fill="white"/>
<path d="M208.245 45.24L207.905 47H206.455L208.125 39.3H209.925L211.415 47H209.965L209.635 45.24H208.255H208.245ZM209.485 44.07L209.235 42.46C209.155 41.99 209.045 41.23 208.985 40.71H208.955C208.875 41.22 208.765 42.02 208.685 42.47L208.395 44.07H209.495H209.485Z" fill="white"/>
<path d="M212.965 47V39.3H214.335L215.525 42.32C215.755 42.91 216.135 43.9 216.345 44.57H216.365C216.315 43.76 216.215 42.42 216.215 41.01V39.31H217.525V47.01H216.155L214.985 44.09C214.735 43.44 214.385 42.47 214.205 41.77H214.185C214.215 42.55 214.275 43.73 214.275 45.29V47.01H212.965V47Z" fill="white"/>
<path d="M223.835 46.79C223.505 46.93 222.795 47.07 222.235 47.07C221.355 47.07 220.695 46.82 220.175 46.31C219.515 45.67 219.155 44.53 219.185 43.2C219.215 40.4 220.815 39.24 222.455 39.24C223.035 39.24 223.475 39.36 223.715 39.47L223.455 40.76C223.235 40.66 222.955 40.59 222.575 40.59C221.555 40.59 220.745 41.29 220.745 43.3C220.745 45.15 221.465 45.81 222.165 45.81C222.305 45.81 222.405 45.8 222.465 45.78V43.91H221.775V42.69H223.845V46.8L223.835 46.79Z" fill="white"/>
<path d="M229.635 39.3V44.3C229.635 45.43 229.975 45.77 230.365 45.77C230.795 45.77 231.105 45.46 231.105 44.3V39.3H232.595V44.04C232.595 46.01 231.855 47.09 230.365 47.09C228.755 47.09 228.125 45.98 228.125 44.05V39.3H229.625H229.635Z" fill="white"/>
<path d="M234.605 47V39.3H235.975L237.165 42.32C237.395 42.91 237.775 43.9 237.985 44.57H238.005C237.955 43.76 237.855 42.42 237.855 41.01V39.31H239.165V47.01H237.795L236.625 44.09C236.375 43.44 236.015 42.47 235.845 41.77H235.825C235.855 42.55 235.915 43.73 235.915 45.29V47.01H234.605V47Z" fill="white"/>
<path d="M242.705 39.3H241.205V47H242.705V39.3Z" fill="white"/>
<path d="M245.825 47L244.105 39.3H245.765L246.315 42.62C246.455 43.44 246.615 44.39 246.715 45.29H246.735C246.835 44.38 246.965 43.45 247.105 42.58L247.635 39.29H249.275L247.515 46.99H245.835L245.825 47Z" fill="white"/>
<path d="M253.875 43.62H252.115V45.7H254.105V47H250.625V39.3H253.965V40.6H252.115V42.37H253.875V43.62Z" fill="white"/>
<path d="M255.835 39.41C256.305 39.32 256.895 39.26 257.465 39.26C258.285 39.26 259.015 39.37 259.525 39.83C259.995 40.26 260.125 40.77 260.125 41.43C260.125 42.25 259.725 42.99 258.935 43.36V43.38C259.465 43.59 259.725 44.08 259.875 44.9C260.025 45.76 260.225 46.7 260.365 46.99H258.805C258.715 46.78 258.545 46 258.425 45.15C258.285 44.19 258.045 43.92 257.545 43.92H257.325V46.99H255.825V39.41H255.835ZM257.335 42.77H257.595C258.245 42.77 258.625 42.25 258.625 41.57C258.625 40.89 258.365 40.45 257.685 40.43C257.565 40.43 257.415 40.43 257.335 40.48V42.77Z" fill="white"/>
<path d="M261.735 45.47C262.045 45.64 262.565 45.77 263.005 45.77C263.715 45.77 264.055 45.4 264.055 44.9C264.055 44.34 263.715 44.06 263.065 43.64C262.015 43 261.615 42.19 261.615 41.49C261.615 40.26 262.435 39.23 264.045 39.23C264.545 39.23 265.025 39.36 265.255 39.5L265.015 40.79C264.795 40.65 264.465 40.53 264.035 40.53C263.395 40.53 263.085 40.92 263.085 41.33C263.085 41.78 263.315 42.03 264.145 42.53C265.165 43.15 265.545 43.92 265.545 44.73C265.545 46.13 264.505 47.06 262.995 47.06C262.375 47.06 261.775 46.9 261.525 46.75L261.745 45.46L261.735 45.47Z" fill="white"/>
<path d="M268.615 39.3H267.115V47H268.615V39.3Z" fill="white"/>
<path d="M271.495 40.68H270.135V39.3H274.355V40.68H272.985V47H271.495V40.68Z" fill="white"/>
<path d="M277.095 47V44.05L275.405 39.3H277.005L277.535 41.14C277.665 41.63 277.815 42.2 277.935 42.77H277.955C278.045 42.21 278.175 41.65 278.305 41.1L278.765 39.3H280.315L278.595 43.99V46.99H277.095V47Z" fill="white"/>
<path d="M195.875 13.52H192.935V28.22H195.875V20.26H198.765V18.55H195.875V13.52ZM186.155 26.51H183.225V34.02H196.225V32.29H186.165V26.52L186.155 26.51ZM276.445 29.29H279.205V13.49H264.985V15.23H276.435V29.29H276.445ZM206.685 13.07C199.405 13.07 199.405 23.7 206.685 23.7C213.965 23.7 213.935 13.07 206.685 13.07ZM206.685 14.71C210.235 14.71 210.235 22.08 206.685 22.08C203.135 22.08 203.115 14.71 206.685 14.71ZM188.765 16.23H191.425V14.49H187.025V12.84H184.085V14.49H179.685V16.23H182.335C179.085 18.74 180.155 25.02 185.555 25.02C190.955 25.02 192.005 18.73 188.765 16.23ZM185.555 16.75C188.885 16.75 188.885 23.49 185.555 23.49C182.225 23.49 182.195 16.75 185.555 16.75ZM245.765 28.22H256.025V34.01H258.955V26.5H245.765V28.21V28.22ZM258.955 13.52H256.025V25.56H258.955V20.26H261.845V18.55H258.955V13.52ZM251.845 16.23H254.505V14.49H250.095V12.84H247.155V14.49H242.755V16.23H245.405C242.155 18.74 243.235 25.02 248.635 25.02C254.035 25.02 255.085 18.73 251.845 16.23ZM248.625 16.75C251.955 16.75 251.955 23.49 248.625 23.49C245.295 23.49 245.265 16.75 248.625 16.75ZM211.455 24.57C203.965 24.57 203.935 34.73 211.455 34.73C218.975 34.73 218.925 24.57 211.455 24.57ZM211.455 33.1C207.785 33.1 207.785 26.15 211.455 26.15C215.125 26.15 215.105 33.1 211.455 33.1ZM274.625 30.92V22.02H271.915V30.92H269.965V22.02H267.255V30.92H264.285V32.66H280.355V30.92H274.615H274.625ZM216.815 13.54H213.855V24.49H216.815V21.61H219.705V19.87H216.815V17.39H219.705V15.68H216.815V13.55V13.54ZM236.405 19.87H235.045V13.53H232.285V25.22H226.805V15.25H230.855V13.51H223.865V26.94H232.285V34.03H235.045V21.59H236.405V34.03H239.165V13.52H236.405V19.86V19.87Z" fill="white"/>
</g>
<defs>
<clipPath id="clip0_14_9">
<rect width="286.15" height="58.29" fill="white" transform="translate(0.925049 0.230011)"/>
</clipPath>
</defs>
</svg>
