<svg width="28" height="28" viewBox="0 0 28 28" fill="none" xmlns="http://www.w3.org/2000/svg">
<path d="M8.1387 0.359741H19.6613C24.0509 0.359741 27.6174 3.92626 27.6174 8.31583V19.8384C27.6174 21.9485 26.7792 23.9722 25.2871 25.4642C23.7951 26.9563 21.7714 27.7945 19.6613 27.7945H8.1387C3.74914 27.7945 0.182617 24.228 0.182617 19.8384V8.31583C0.182617 6.20574 1.02085 4.18208 2.5129 2.69003C4.00496 1.19797 6.02862 0.359741 8.1387 0.359741ZM7.86436 3.10322C6.55465 3.10322 5.29858 3.6235 4.37248 4.5496C3.44638 5.47571 2.9261 6.73177 2.9261 8.04148V20.1128C2.9261 22.8425 5.1346 25.051 7.86436 25.051H19.9357C21.2454 25.051 22.5014 24.5308 23.4275 23.6047C24.3536 22.6786 24.8739 21.4225 24.8739 20.1128V8.04148C24.8739 5.31172 22.6654 3.10322 19.9357 3.10322H7.86436ZM21.1016 5.16083C21.5564 5.16083 21.9925 5.34148 22.3141 5.66304C22.6357 5.98461 22.8163 6.42074 22.8163 6.8755C22.8163 7.33026 22.6357 7.7664 22.3141 8.08796C21.9925 8.40952 21.5564 8.59018 21.1016 8.59018C20.6469 8.59018 20.2107 8.40952 19.8892 8.08796C19.5676 7.7664 19.387 7.33026 19.387 6.8755C19.387 6.42074 19.5676 5.98461 19.8892 5.66304C20.2107 5.34148 20.6469 5.16083 21.1016 5.16083ZM13.9 7.21844C15.719 7.21844 17.4636 7.94105 18.7498 9.2273C20.0361 10.5136 20.7587 12.2581 20.7587 14.0771C20.7587 15.8962 20.0361 17.6407 18.7498 18.927C17.4636 20.2132 15.719 20.9358 13.9 20.9358C12.081 20.9358 10.3364 20.2132 9.05018 18.927C7.76392 17.6407 7.04131 15.8962 7.04131 14.0771C7.04131 12.2581 7.76392 10.5136 9.05018 9.2273C10.3364 7.94105 12.081 7.21844 13.9 7.21844ZM13.9 9.96192C12.8086 9.96192 11.7619 10.3955 10.9901 11.1672C10.2184 11.939 9.78479 12.9857 9.78479 14.0771C9.78479 15.1686 10.2184 16.2153 10.9901 16.987C11.7619 17.7588 12.8086 18.1924 13.9 18.1924C14.9914 18.1924 16.0382 17.7588 16.8099 16.987C17.5817 16.2153 18.0152 15.1686 18.0152 14.0771C18.0152 12.9857 17.5817 11.939 16.8099 11.1672C16.0382 10.3955 14.9914 9.96192 13.9 9.96192Z" fill="white"/>
</svg>
