<svg width="17" height="16" viewBox="0 0 17 16" fill="none" xmlns="http://www.w3.org/2000/svg">
<g clip-path="url(#clip0_361_6534)">
<path fill-rule="evenodd" clip-rule="evenodd" d="M4.62071 2.67166C3.23469 2.67166 1.79639 3.92528 1.79639 5.68067C1.79639 7.75225 3.34545 9.65419 5.03718 11.0944C5.86772 11.8015 6.70076 12.3703 7.32735 12.7626C7.64013 12.9584 7.90016 13.1095 8.08099 13.2111C8.09794 13.2206 8.11419 13.2297 8.12972 13.2383C8.14525 13.2297 8.1615 13.2206 8.17845 13.2111C8.35928 13.1095 8.61931 12.9584 8.93209 12.7626C9.55868 12.3703 10.3918 11.8015 11.2223 11.0944C12.914 9.65419 14.4631 7.75225 14.4631 5.68067C14.4631 3.92528 13.0248 2.67166 11.6388 2.67166C10.2352 2.67166 9.10486 3.59766 8.60406 5.10005C8.536 5.30422 8.34494 5.44193 8.12972 5.44193C7.9145 5.44193 7.72344 5.30422 7.65538 5.10005C7.15458 3.59766 6.02429 2.67166 4.62071 2.67166ZM8.12972 13.8068L8.35812 14.2516C8.21475 14.3252 8.04469 14.3252 7.90132 14.2516L8.12972 13.8068ZM0.796387 5.68067C0.796387 3.373 2.68241 1.67166 4.62071 1.67166C6.14959 1.67166 7.38357 2.48914 8.12972 3.74155C8.87587 2.48914 10.1099 1.67166 11.6388 1.67166C13.5771 1.67166 15.4631 3.373 15.4631 5.68067C15.4631 8.22621 13.5955 10.3873 11.8705 11.8559C10.9928 12.6032 10.1174 13.2003 9.46277 13.6102C9.13492 13.8154 8.86109 13.9746 8.66823 14.0829C8.57177 14.1371 8.49547 14.1787 8.44268 14.2069C8.41629 14.2211 8.39577 14.2319 8.38153 14.2394L8.36496 14.2481L8.3603 14.2505L8.35812 14.2516C8.35795 14.2517 8.35812 14.2516 8.12972 13.8068C7.90132 14.2516 7.90149 14.2517 7.90132 14.2516L7.89914 14.2505L7.89448 14.2481L7.87791 14.2394C7.86367 14.2319 7.84315 14.2211 7.81676 14.2069C7.76397 14.1787 7.68767 14.1371 7.59121 14.0829C7.39834 13.9746 7.12452 13.8154 6.79667 13.6102C6.14201 13.2003 5.26671 12.6032 4.38893 11.8559C2.66399 10.3873 0.796387 8.22621 0.796387 5.68067Z" fill="#F2645A"/>
</g>
<defs>
<clipPath id="clip0_361_6534">
<rect width="16" height="16" fill="white" transform="translate(0.129883 0.00500488)"/>
</clipPath>
</defs>
</svg>
