<svg width="18" height="16" viewBox="0 0 18 16" fill="none" xmlns="http://www.w3.org/2000/svg">
<g clip-path="url(#clip0_923_27)">
<path fill-rule="evenodd" clip-rule="evenodd" d="M5.62071 2.66666C4.23469 2.66666 2.79639 3.92028 2.79639 5.67567C2.79639 7.74725 4.34545 9.64919 6.03718 11.0894C6.86772 11.7965 7.70076 12.3653 8.32735 12.7576C8.64013 12.9534 8.90016 13.1045 9.08099 13.2061C9.09794 13.2156 9.11419 13.2247 9.12972 13.2333C9.14525 13.2247 9.1615 13.2156 9.17845 13.2061C9.35928 13.1045 9.61931 12.9534 9.93209 12.7576C10.5587 12.3653 11.3918 11.7965 12.2223 11.0894C13.914 9.64919 15.4631 7.74725 15.4631 5.67567C15.4631 3.92028 14.0248 2.66666 12.6388 2.66666C11.2352 2.66666 10.1049 3.59266 9.60406 5.09505C9.536 5.29922 9.34494 5.43693 9.12972 5.43693C8.9145 5.43693 8.72344 5.29922 8.65538 5.09505C8.15458 3.59266 7.02429 2.66666 5.62071 2.66666ZM9.12972 13.8018L9.35812 14.2466C9.21475 14.3202 9.04469 14.3202 8.90132 14.2466L9.12972 13.8018ZM1.79639 5.67567C1.79639 3.368 3.68241 1.66666 5.62071 1.66666C7.14959 1.66666 8.38357 2.48414 9.12972 3.73655C9.87587 2.48414 11.1099 1.66666 12.6388 1.66666C14.5771 1.66666 16.4631 3.368 16.4631 5.67567C16.4631 8.22121 14.5955 10.3823 12.8705 11.8509C11.9928 12.5982 11.1174 13.1953 10.4628 13.6052C10.1349 13.8104 9.86109 13.9696 9.66823 14.0779C9.57177 14.1321 9.49547 14.1737 9.44268 14.2019C9.41629 14.2161 9.39577 14.2269 9.38153 14.2344L9.36496 14.2431L9.3603 14.2455L9.35812 14.2466C9.35795 14.2467 9.35812 14.2466 9.12972 13.8018C8.90132 14.2466 8.90149 14.2467 8.90132 14.2466L8.89914 14.2455L8.89448 14.2431L8.87791 14.2344C8.86367 14.2269 8.84315 14.2161 8.81676 14.2019C8.76397 14.1737 8.68767 14.1321 8.59121 14.0779C8.39834 13.9696 8.12452 13.8104 7.79667 13.6052C7.14201 13.1953 6.26671 12.5982 5.38893 11.8509C3.66399 10.3823 1.79639 8.22121 1.79639 5.67567Z" fill="#F2645A"/>
</g>
<defs>
<clipPath id="clip0_923_27">
<rect width="16" height="16" fill="white" transform="translate(1.12988)"/>
</clipPath>
</defs>
</svg>
