<svg width="17" height="16" viewBox="0 0 17 16" fill="none" xmlns="http://www.w3.org/2000/svg">
<path fill-rule="evenodd" clip-rule="evenodd" d="M4.99095 2.66666C3.60493 2.66666 2.16663 3.92028 2.16663 5.67567C2.16663 7.74725 3.71569 9.64919 5.40742 11.0894C6.23796 11.7965 7.071 12.3653 7.69759 12.7576C8.01037 12.9534 8.2704 13.1045 8.45123 13.2061C8.46818 13.2156 8.48443 13.2247 8.49996 13.2333C8.51549 13.2247 8.53174 13.2156 8.54869 13.2061C8.72952 13.1045 8.98955 12.9534 9.30233 12.7576C9.92892 12.3653 10.762 11.7965 11.5925 11.0894C13.2842 9.64919 14.8333 7.74725 14.8333 5.67567C14.8333 3.92028 13.395 2.66666 12.009 2.66666C10.6054 2.66666 9.4751 3.59266 8.9743 5.09505C8.90624 5.29922 8.71518 5.43693 8.49996 5.43693C8.28474 5.43693 8.09368 5.29922 8.02562 5.09505C7.52482 3.59266 6.39453 2.66666 4.99095 2.66666ZM8.49996 13.8018L8.72836 14.2466C8.58499 14.3202 8.41493 14.3202 8.27156 14.2466L8.49996 13.8018ZM1.16663 5.67567C1.16663 3.368 3.05265 1.66666 4.99095 1.66666C6.51983 1.66666 7.75381 2.48414 8.49996 3.73655C9.24611 2.48414 10.4801 1.66666 12.009 1.66666C13.9473 1.66666 15.8333 3.368 15.8333 5.67567C15.8333 8.22121 13.9657 10.3823 12.2407 11.8509C11.363 12.5982 10.4877 13.1953 9.83301 13.6052C9.50516 13.8104 9.23133 13.9696 9.03847 14.0779C8.94201 14.1321 8.86571 14.1737 8.81292 14.2019C8.78653 14.2161 8.76601 14.2269 8.75177 14.2344L8.7352 14.2431L8.73054 14.2455L8.72836 14.2466C8.72819 14.2467 8.72836 14.2466 8.49996 13.8018C8.27156 14.2466 8.27173 14.2467 8.27156 14.2466L8.26938 14.2455L8.26472 14.2431L8.24815 14.2344C8.23391 14.2269 8.21339 14.2161 8.187 14.2019C8.13421 14.1737 8.05791 14.1321 7.96145 14.0779C7.76858 13.9696 7.49476 13.8104 7.16691 13.6052C6.51225 13.1953 5.63695 12.5982 4.75917 11.8509C3.03423 10.3823 1.16663 8.22121 1.16663 5.67567Z" fill="#F2645A"/>
<path d="M4.99095 2.66666C3.60493 2.66666 2.16663 3.92028 2.16663 5.67567C2.16663 7.74725 3.71569 9.64919 5.40742 11.0894C6.23796 11.7965 7.071 12.3653 7.69759 12.7576C8.01037 12.9534 8.2704 13.1045 8.45123 13.2061L8.49996 13.2333L8.54869 13.2061C8.72952 13.1045 8.98955 12.9534 9.30233 12.7576C9.92892 12.3653 10.762 11.7965 11.5925 11.0894C13.2842 9.64919 14.8333 7.74725 14.8333 5.67567C14.8333 3.92028 13.395 2.66666 12.009 2.66666C10.6054 2.66666 9.4751 3.59266 8.9743 5.09505C8.90624 5.29922 8.71518 5.43693 8.49996 5.43693C8.28474 5.43693 8.09368 5.29922 8.02562 5.09505C7.52482 3.59266 6.39453 2.66666 4.99095 2.66666Z" fill="#F2645A"/>
</svg>
