<svg width="39" height="37" viewBox="0 0 39 37" fill="none" xmlns="http://www.w3.org/2000/svg">
<path d="M25.7359 26.949C22.6402 29.2991 18.7443 30.4078 14.8415 30.0493C10.9387 29.6908 7.3224 27.8921 4.72901 25.0195C2.13561 22.1469 0.760091 18.4163 0.882524 14.5874C1.00496 10.7585 2.61614 7.11908 5.38801 4.4103C8.15987 1.70151 11.884 0.127001 15.8021 0.00735324C19.7202 -0.112294 23.5377 1.23192 26.4772 3.76629C29.4167 6.30067 31.2573 9.83464 31.6241 13.6486C31.9909 17.4626 30.8564 21.2698 28.4516 24.2951L38.756 34.3273L36.021 37L25.7552 26.949H25.7359ZM16.2983 26.3467C17.8159 26.3467 19.3186 26.0546 20.7207 25.487C22.1227 24.9195 23.3967 24.0877 24.4698 23.039C25.5429 21.9903 26.3941 20.7453 26.9749 19.3752C27.5556 18.005 27.8545 16.5365 27.8545 15.0534C27.8545 13.5704 27.5556 12.1019 26.9749 10.7317C26.3941 9.36154 25.5429 8.11658 24.4698 7.06791C23.3967 6.01923 22.1227 5.18738 20.7207 4.61984C19.3186 4.0523 17.8159 3.76019 16.2983 3.76019C13.2334 3.76019 10.294 4.95001 8.12677 7.06791C5.95955 9.1858 4.74202 12.0583 4.74202 15.0534C4.74202 18.0486 5.95955 20.9211 8.12677 23.039C10.294 25.1569 13.2334 26.3467 16.2983 26.3467Z" fill="#003B71"/>
</svg>
