<svg width="18" height="22" viewBox="0 0 18 22" fill="none" xmlns="http://www.w3.org/2000/svg">
<g clip-path="url(#clip0_270_292)">
<g opacity="0.2">
<path d="M14.9011 8.46927H2.6001C1.77167 8.46927 1.1001 9.14084 1.1001 9.96927V18.8743C1.1001 19.7027 1.77167 20.3743 2.6001 20.3743H14.9011C15.7295 20.3743 16.4011 19.7027 16.4011 18.8743V9.96927C16.4011 9.14084 15.7295 8.46927 14.9011 8.46927Z" stroke="black"/>
<path d="M9.08891 16.3013C10.1256 16.3013 10.9659 15.4609 10.9659 14.4243C10.9659 13.3876 10.1256 12.5473 9.08891 12.5473C8.05228 12.5473 7.21191 13.3876 7.21191 14.4243C7.21191 15.4609 8.05228 16.3013 9.08891 16.3013Z" stroke="black"/>
<path d="M5.354 8.65127V4.96127C5.354 2.87327 7.027 1.18027 9.089 1.18027C11.152 1.18027 12.825 2.87327 12.825 4.96127V8.65127" stroke="black" stroke-miterlimit="10"/>
</g>
</g>
<defs>
<clipPath id="clip0_270_292">
<rect width="17" height="21" fill="white" transform="translate(0.600098 0.180267)"/>
</clipPath>
</defs>
</svg>
