<svg width="41" height="41" viewBox="0 0 41 41" fill="none" xmlns="http://www.w3.org/2000/svg">
<rect width="40.4771" height="40.5109" rx="20.2386" fill="white"/>
<g clip-path="url(#clip0_1070_6)">
<path d="M14.0947 27.2465H26.3902C27.2435 27.2465 27.9375 26.5526 27.9375 25.6993V14.8682C27.9375 14.0149 27.2435 13.3209 26.3902 13.3209H14.0947C13.2413 13.3209 12.5474 14.0149 12.5474 14.8682V25.6993C12.5474 26.5526 13.2413 27.2465 14.0947 27.2465ZM14.0947 25.6993V21.831H17.1892V25.6993H14.0947ZM21.8311 16.4155V20.2837H18.7365V16.4155H21.8311ZM17.1892 16.4155V20.2837H14.0947V16.4155H17.1892ZM18.7365 25.6993V21.831H21.8311V25.6993H18.7365ZM23.3784 25.6993V21.831H26.391V25.6993H23.3784ZM26.3902 20.2837H23.3784V16.4155H26.3902V20.2837Z" fill="#2C2E34"/>
</g>
<defs>
<clipPath id="clip0_1070_6">
<rect width="18.5675" height="18.5675" fill="white" transform="translate(10.9548 10.9717)"/>
</clipPath>
</defs>
</svg>
