<svg width="28" height="24" viewBox="0 0 28 24" fill="none" xmlns="http://www.w3.org/2000/svg">
<path d="M27.363 3.52519C26.3597 3.98122 25.2783 4.2809 24.1577 4.42422C25.3043 3.73366 26.1903 2.63919 26.6073 1.32322C25.5258 1.97469 24.3271 2.43072 23.0633 2.69131C22.034 1.57078 20.5877 0.919312 18.946 0.919312C15.8841 0.919312 13.3824 3.42096 13.3824 6.50893C13.3824 6.95193 13.4345 7.3819 13.5258 7.78581C8.88729 7.55128 4.75697 5.32325 2.00776 1.94863C1.52567 2.76949 1.25206 3.73366 1.25206 4.74996C1.25206 6.69134 2.22926 8.41122 3.74067 9.38842C2.81558 9.38842 1.95564 9.12784 1.19994 8.73695V8.77604C1.19994 11.4862 3.12829 13.7533 5.68205 14.2614C4.86215 14.4858 4.00138 14.517 3.16738 14.3526C3.52127 15.4634 4.21434 16.4353 5.14917 17.1317C6.08401 17.8282 7.21359 18.2141 8.37914 18.2354C6.4034 19.7995 3.95435 20.6449 1.43447 20.6328C0.991468 20.6328 0.548468 20.6067 0.105469 20.5546C2.58106 22.1442 5.5257 23.0693 8.67882 23.0693C18.946 23.0693 24.5877 14.5481 24.5877 7.1604C24.5877 6.91284 24.5877 6.67831 24.5747 6.43075C25.6692 5.64898 26.6073 4.65875 27.363 3.52519Z" fill="white"/>
</svg>
