<svg width="31" height="22" viewBox="0 0 31 22" fill="none" xmlns="http://www.w3.org/2000/svg">
<path d="M12.49 15.5215L20.3829 10.9591L12.49 6.39675V15.5215ZM30.0704 3.61371C30.2681 4.32848 30.4049 5.28658 30.4962 6.50321C30.6026 7.71984 30.6483 8.76918 30.6483 9.68165L30.7395 10.9591C30.7395 14.2896 30.4962 16.7381 30.0704 18.3045C29.6902 19.6732 28.8081 20.5553 27.4394 20.9355C26.7246 21.1332 25.4167 21.2701 23.4093 21.3613C21.4323 21.4678 19.6225 21.5134 17.9497 21.5134L15.5316 21.6046C9.15951 21.6046 5.19025 21.3613 3.62384 20.9355C2.25513 20.5553 1.37307 19.6732 0.992877 18.3045C0.795175 17.5898 0.658304 16.6317 0.567057 15.415C0.460602 14.1984 0.414978 13.1491 0.414978 12.2366L0.32373 10.9591C0.32373 7.62859 0.567057 5.18012 0.992877 3.61371C1.37307 2.245 2.25513 1.36294 3.62384 0.982746C4.33861 0.785043 5.64649 0.648172 7.65393 0.556925C9.63096 0.450469 11.4407 0.404846 13.1136 0.404846L15.5316 0.313599C21.9037 0.313599 25.873 0.556925 27.4394 0.982746C28.8081 1.36294 29.6902 2.245 30.0704 3.61371Z" fill="white"/>
</svg>
